<svg xmlns="http://www.w3.org/2000/svg" width="31" height="18" viewBox="0 0 31 18">
    <g>
        <path d="M1.41 3.5c-.39 0-.705.224-.705.5s.315.5.704.5v-1zm28.68.854c.274-.196.274-.512 0-.708L25.604.464c-.275-.195-.72-.195-.996 0-.275.196-.275.512 0 .708L28.595 4l-3.986 2.828c-.275.196-.275.512 0 .708.275.195.721.195.996 0l4.484-3.182zM1.41 4.5h28.18v-1H1.41v1zM29.59 14.5c.39 0 .705-.224.705-.5s-.315-.5-.704-.5v1zM.91 13.646c-.274.196-.274.512 0 .708l4.485 3.181c.275.196.72.196.996 0 .275-.195.275-.511 0-.707L2.405 14l3.986-2.828c.275-.196.275-.512 0-.708-.275-.195-.721-.195-.996 0L.91 13.646zm28.68-.146H1.41v1h28.18v-1z"/>
    </g>
</svg>
