<svg width="351" height="334" viewBox="0 0 351 334" fill="none" xmlns="http://www.w3.org/2000/svg">
<g filter="url(#filter0_d_527_77)">
<path d="M345.806 252.392C344.302 249.063 341.464 247.467 337.623 247.467L178.667 247.467V235.375L317.422 235.375C321.262 235.375 323.635 233.711 325.27 230.755C326.976 227.664 327.265 224.606 325.27 221.652L177.163 4.16008C174.716 0.593807 171.336 -0.697384 166.644 0.35545C162.818 1.20467 160.133 4.80515 160.133 8.77973L160.133 226.611V247.467L13.362 247.467C9.85686 247.467 7.05343 249.063 5.17981 252.392C3.38129 255.585 3.66601 258.608 5.84956 261.462L52.4351 322.467C54.2622 324.844 56.7775 325.965 59.9475 325.965L291.372 325.965C294.211 325.965 296.716 324.844 298.885 322.467L345.139 261.462C347.313 258.608 347.644 255.585 345.806 252.392ZM178.667 204.464V204.159L178.667 39.3499L300.723 217.847L178.667 217.847V204.464ZM286.699 308.438L64.4575 308.438L31.5646 265.47L319.425 265.47L286.699 308.438Z" fill="black"/>
</g>
<path d="M134.419 293.152C138.18 289.722 138.259 284.083 134.419 280.72C130.913 277.086 124.986 277.154 121.395 280.72C117.972 284.151 117.89 289.823 121.395 293.152C124.9 296.515 130.832 296.414 134.419 293.152Z" fill="black"/>
<path d="M111.541 293.152C115.303 289.722 115.385 284.083 111.541 280.72C108.036 277.086 102.108 277.154 98.5182 280.72C95.0949 284.151 95.013 289.823 98.5182 293.152C102.027 296.515 107.954 296.414 111.541 293.152Z" fill="black"/>
<path d="M88.67 293.152C92.1751 289.823 92.0933 284.151 88.67 280.72C85.0796 277.153 79.234 277.153 75.6432 280.72C72.2199 284.151 72.138 289.823 75.6432 293.152C79.1522 296.515 85.1615 296.515 88.67 293.152Z" fill="black"/>
<path d="M85.5992 188.9C90.7992 188.9 95.7992 189.8 100.199 191.5L109.799 186V196.8C114.299 200.4 117.599 205 118.999 210.2H125.399C126.999 210.2 128.199 211.5 128.199 213V221.5C128.199 223.1 126.899 224.3 125.399 224.3H117.999C113.499 235 100.699 242.8 85.5992 242.8C66.6992 242.8 51.4992 230.7 51.4992 215.8C51.4992 200.9 66.6992 188.9 85.5992 188.9Z" fill="#FF1493"/>
<path d="M70.1992 202.4C74.9992 199.1 81.4992 197 88.6992 197L95.1992 211.2L80.4992 223.4L60.4992 214.8L65.9992 202L70.1992 202.4Z" fill="#FF1493"/>
<path d="M99.7984 206C99.7984 208.4 101.698 210.3 104.098 210.3C106.498 210.3 108.398 208.4 108.398 206" stroke="#C71585" stroke-width="2.2356" stroke-miterlimit="10" stroke-linecap="round"/>
<path d="M88.6992 197C81.4992 197 74.9992 199 70.1992 202.4Z" fill="#FF1493"/>
<path d="M88.6992 197C81.4992 197 74.9992 199 70.1992 202.4" stroke="#C71585" stroke-width="2.2356" stroke-miterlimit="10" stroke-linecap="round"/>
<path d="M85.5992 188.9C90.7992 188.9 95.7992 189.8 100.199 191.5L109.799 186V196.8C114.299 200.4 117.599 205 118.999 210.2H125.399C126.999 210.2 128.199 211.5 128.199 213V221.5C128.199 223.1 126.899 224.3 125.399 224.3H117.999C113.499 235 100.699 242.8 85.5992 242.8C66.6992 242.8 51.4992 230.7 51.4992 215.8C51.4992 200.9 66.6992 188.9 85.5992 188.9Z" stroke="#C71585" stroke-width="2.2356" stroke-miterlimit="10" stroke-linecap="round"/>
<path d="M96.9988 235.9V245.8H108.299V230.2" stroke="#C71585" stroke-width="2.2356" stroke-miterlimit="10" stroke-linecap="round"/>
<path d="M45.7 211.7C45.7 214.1 47.6 216 50 216" stroke="#C71585" stroke-width="2.2356" stroke-miterlimit="10" stroke-linecap="round"/>
<path d="M96.9988 235.9V245.8H108.299V230.2" fill="#FF1493"/>
<path d="M62.7992 230.2V245.8H74.1992V235.9" fill="#FF1493"/>
<path d="M62.7992 230.2V245.8H74.1992V235.9" stroke="#C71585" stroke-width="2.2356" stroke-miterlimit="10" stroke-linecap="round"/>
<path d="M49.9984 216H51.3984" stroke="#C71585" stroke-width="2.8454" stroke-miterlimit="10"/>
<defs>
<filter id="filter0_d_527_77" x="0" y="0" width="351" height="333.965" filterUnits="userSpaceOnUse" color-interpolation-filters="sRGB">
<feFlood flood-opacity="0" result="BackgroundImageFix"/>
<feColorMatrix in="SourceAlpha" type="matrix" values="0 0 0 0 0 0 0 0 0 0 0 0 0 0 0 0 0 0 127 0" result="hardAlpha"/>
<feOffset dy="4"/>
<feGaussianBlur stdDeviation="2"/>
<feComposite in2="hardAlpha" operator="out"/>
<feColorMatrix type="matrix" values="0 0 0 0 0 0 0 0 0 0 0 0 0 0 0 0 0 0 0.25 0"/>
<feBlend mode="normal" in2="BackgroundImageFix" result="effect1_dropShadow_527_77"/>
<feBlend mode="normal" in="SourceGraphic" in2="effect1_dropShadow_527_77" result="shape"/>
</filter>
</defs>
</svg>
