<svg width="59" height="65" viewBox="0 0 59 65" fill="none" xmlns="http://www.w3.org/2000/svg">
<path d="M32.8619 0.25L29.7139 2.04142L26.5659 0.25L0.427734 15.0993V44.7872L3.57572 46.5786V50.1615L29.7139 65L55.852 50.1507V46.5678L59 44.7764V15.0993L32.8619 0.25ZM5.1552 17.7865L29.7139 3.83283L54.2725 17.7865V45.6829L29.7139 59.6365L5.1552 45.6829V17.7865ZM2.00721 43.8915V15.995L26.5659 2.04142L28.1454 2.93712L3.57572 16.8907V44.7872L2.00721 43.8915ZM29.7139 63.2086L5.1552 49.255V47.4635L29.7139 61.4172L54.2725 47.4635V49.255L29.7139 63.2086ZM57.4205 43.8915L55.841 44.7872V16.8907L31.2824 2.93712L32.8619 2.04142L57.4205 15.995V43.8915Z" fill="#247718"/>
<path d="M37.2694 42.2984L37.5614 43.0345L21.7524 47.0962L19.3047 40.9223L20.2192 40.6873L22.375 46.1251L37.2694 42.2984ZM38.4329 41.675L38.141 40.9389L23.2467 44.7656L21.0908 39.3278L20.1763 39.5628L22.624 45.7367L38.4329 41.675ZM39.3047 40.3155L23.4957 44.3771L21.048 38.2032L34.8904 34.6468L35.829 37.0142L37.7955 36.509L38.3178 37.8263L37.0359 38.1556L37.4451 39.1875L38.7269 38.8582L39.3047 40.3155ZM32.6664 38.6196C32.1719 37.3722 30.5148 36.6837 28.9653 37.0818C27.4157 37.4799 26.5605 38.8139 27.0551 40.0613C27.5496 41.3087 29.2066 41.9971 30.7562 41.599C32.3057 41.2009 33.161 39.867 32.6664 38.6196ZM34.5988 36.8766L34.2938 36.107L33.3377 36.3526L33.6428 37.1222L34.5988 36.8766ZM31.227 39.5614C31.3023 39.7512 31.2781 39.9296 31.1545 40.0969C31.031 40.2641 30.8124 40.4039 30.4987 40.5161L30.6677 40.942L30.3433 41.0253L30.1792 40.6112C29.774 40.7096 29.4235 40.7449 29.1278 40.7171L28.9636 40.3029C29.1252 40.3219 29.3068 40.3261 29.5085 40.3153C29.7102 40.3046 29.8852 40.2809 30.0337 40.2442L29.7426 39.5103L29.5138 39.502C29.2145 39.488 28.9808 39.4396 28.8128 39.3566C28.6446 39.2737 28.5272 39.1478 28.4602 38.979C28.3887 38.7985 28.4171 38.6276 28.5457 38.4662C28.6742 38.3049 28.8831 38.1734 29.1723 38.0717L29.0416 37.7419L29.3659 37.6586L29.4943 37.9824C29.8278 37.9069 30.162 37.8801 30.4966 37.9023L30.461 38.3072C30.1738 38.2916 29.901 38.3083 29.6429 38.3573L29.9261 39.0717L30.1339 39.081C30.4806 39.0972 30.7343 39.143 30.8949 39.2185C31.0556 39.2941 31.1664 39.4083 31.227 39.5614ZM29.5638 39.0588L29.3218 38.4485C29.1979 38.4976 29.1116 38.5551 29.0625 38.6211C29.0134 38.687 29.0032 38.756 29.0316 38.828C29.0612 38.9026 29.1146 38.9573 29.1922 38.9922C29.2695 39.0271 29.3934 39.0493 29.5638 39.0588ZM30.6633 39.7387C30.6333 39.6628 30.5756 39.6088 30.4903 39.5766C30.405 39.5444 30.2761 39.5254 30.1036 39.5192L30.3517 40.1453C30.6238 40.0365 30.7277 39.9009 30.6633 39.7387ZM39.1914 35.9142L38.1761 33.3534L34.995 34.1707L36.0103 36.7315L39.1914 35.9142ZM34.7007 34.2463L34.0803 32.6816L32.1365 33.1809L32.7569 34.7457L34.7007 34.2463ZM36.8147 32.2539L36.4056 31.222L35.1239 31.5513L35.5329 32.5832L36.8147 32.2539ZM33.7203 30.8658L33.4151 30.0962L32.4591 30.3418L32.7643 31.1113L33.7203 30.8658Z" fill="#21A20D"/>
<path d="M10.5689 28V21.4545H13.1513C13.6456 21.4545 14.0675 21.543 14.4169 21.7198C14.7685 21.8945 15.0359 22.1428 15.2191 22.4645C15.4045 22.7841 15.4972 23.1602 15.4972 23.5927C15.4972 24.0273 15.4034 24.4013 15.2159 24.7145C15.0284 25.0256 14.7567 25.2642 14.4009 25.4304C14.0472 25.5966 13.619 25.6797 13.1161 25.6797H11.3871V24.5675H12.8924C13.1566 24.5675 13.3761 24.5312 13.5508 24.4588C13.7255 24.3864 13.8555 24.2777 13.9407 24.1328C14.0281 23.9879 14.0717 23.8079 14.0717 23.5927C14.0717 23.3754 14.0281 23.1921 13.9407 23.043C13.8555 22.8938 13.7244 22.7809 13.5476 22.7042C13.3729 22.6254 13.1523 22.5859 12.886 22.5859H11.9528V28H10.5689ZM14.1037 25.0213L15.7305 28H14.2028L12.6112 25.0213H14.1037ZM20.0259 23.337C20.0004 23.0792 19.8906 22.8789 19.6967 22.7362C19.5028 22.5934 19.2397 22.522 18.9073 22.522C18.6815 22.522 18.4908 22.554 18.3352 22.6179C18.1797 22.6797 18.0604 22.766 17.9773 22.8768C17.8963 22.9876 17.8558 23.1133 17.8558 23.2539C17.8516 23.3711 17.8761 23.4734 17.9293 23.5607C17.9847 23.6481 18.0604 23.7237 18.1562 23.7876C18.2521 23.8494 18.3629 23.9038 18.4886 23.9506C18.6143 23.9954 18.7486 24.0337 18.8913 24.0657L19.4794 24.2063C19.7649 24.2702 20.027 24.3555 20.2656 24.462C20.5043 24.5685 20.7109 24.6996 20.8857 24.8551C21.0604 25.0107 21.1957 25.1939 21.2915 25.4048C21.3896 25.6158 21.4396 25.8576 21.4418 26.1303C21.4396 26.5309 21.3374 26.8782 21.1349 27.1722C20.9347 27.4641 20.6449 27.6911 20.2656 27.853C19.8885 28.0128 19.4336 28.0927 18.9009 28.0927C18.3725 28.0927 17.9123 28.0117 17.5202 27.8498C17.1303 27.6879 16.8256 27.4482 16.6062 27.1307C16.3888 26.8111 16.2749 26.4158 16.2642 25.945H17.6033C17.6183 26.1644 17.6811 26.3477 17.7919 26.4947C17.9048 26.6396 18.055 26.7493 18.2425 26.8239C18.4322 26.8963 18.6463 26.9325 18.8849 26.9325C19.1193 26.9325 19.3228 26.8984 19.4954 26.8303C19.6701 26.7621 19.8054 26.6673 19.9013 26.5458C19.9972 26.4244 20.0451 26.2848 20.0451 26.1271C20.0451 25.9801 20.0014 25.8565 19.9141 25.7564C19.8288 25.6562 19.7031 25.571 19.5369 25.5007C19.3729 25.4304 19.1715 25.3665 18.9329 25.3089L18.2202 25.13C17.6683 24.9957 17.2326 24.7859 16.913 24.5004C16.5934 24.2148 16.4347 23.8303 16.4368 23.3466C16.4347 22.9503 16.5401 22.604 16.7532 22.3079C16.9684 22.0117 17.2635 21.7805 17.6385 21.6143C18.0135 21.4482 18.4396 21.3651 18.9169 21.3651C19.4027 21.3651 19.8267 21.4482 20.1889 21.6143C20.5533 21.7805 20.8366 22.0117 21.0391 22.3079C21.2415 22.604 21.3459 22.9471 21.3523 23.337H20.0259ZM25.9234 23.337C25.8978 23.0792 25.7881 22.8789 25.5942 22.7362C25.4003 22.5934 25.1372 22.522 24.8048 22.522C24.5789 22.522 24.3882 22.554 24.2327 22.6179C24.0771 22.6797 23.9578 22.766 23.8747 22.8768C23.7938 22.9876 23.7533 23.1133 23.7533 23.2539C23.749 23.3711 23.7735 23.4734 23.8268 23.5607C23.8822 23.6481 23.9578 23.7237 24.0537 23.7876C24.1496 23.8494 24.2604 23.9038 24.3861 23.9506C24.5118 23.9954 24.646 24.0337 24.7888 24.0657L25.3769 24.2063C25.6624 24.2702 25.9244 24.3555 26.1631 24.462C26.4017 24.5685 26.6084 24.6996 26.7831 24.8551C26.9578 25.0107 27.0931 25.1939 27.189 25.4048C27.287 25.6158 27.3371 25.8576 27.3392 26.1303C27.3371 26.5309 27.2348 26.8782 27.0324 27.1722C26.8321 27.4641 26.5423 27.6911 26.1631 27.853C25.786 28.0128 25.3311 28.0927 24.7984 28.0927C24.27 28.0927 23.8097 28.0117 23.4177 27.8498C23.0278 27.6879 22.7231 27.4482 22.5036 27.1307C22.2863 26.8111 22.1723 26.4158 22.1617 25.945H23.5008C23.5157 26.1644 23.5786 26.3477 23.6894 26.4947C23.8023 26.6396 23.9525 26.7493 24.14 26.8239C24.3296 26.8963 24.5438 26.9325 24.7824 26.9325C25.0168 26.9325 25.2203 26.8984 25.3928 26.8303C25.5676 26.7621 25.7029 26.6673 25.7987 26.5458C25.8946 26.4244 25.9426 26.2848 25.9426 26.1271C25.9426 25.9801 25.8989 25.8565 25.8115 25.7564C25.7263 25.6562 25.6006 25.571 25.4344 25.5007C25.2703 25.4304 25.069 25.3665 24.8303 25.3089L24.1176 25.13C23.5658 24.9957 23.1301 24.7859 22.8105 24.5004C22.4909 24.2148 22.3321 23.8303 22.3343 23.3466C22.3321 22.9503 22.4376 22.604 22.6507 22.3079C22.8659 22.0117 23.161 21.7805 23.536 21.6143C23.911 21.4482 24.3371 21.3651 24.8144 21.3651C25.3002 21.3651 25.7242 21.4482 26.0864 21.6143C26.4507 21.7805 26.7341 22.0117 26.9365 22.3079C27.1389 22.604 27.2433 22.9471 27.2497 23.337H25.9234ZM30.3531 28V21.4545H31.7146V23.9155H31.7561C31.8158 23.7834 31.9021 23.6491 32.015 23.5128C32.1301 23.3743 32.2792 23.2592 32.4624 23.1676C32.6478 23.0739 32.8779 23.027 33.1528 23.027C33.5107 23.027 33.841 23.1207 34.1436 23.3082C34.4461 23.4936 34.6879 23.7738 34.8691 24.1488C35.0502 24.5217 35.1407 24.9893 35.1407 25.5518C35.1407 26.0994 35.0523 26.5618 34.8754 26.9389C34.7007 27.3139 34.4621 27.5984 34.1595 27.7923C33.8591 27.984 33.5225 28.0799 33.1496 28.0799C32.8854 28.0799 32.6606 28.0362 32.4752 27.9489C32.292 27.8615 32.1418 27.7518 32.0246 27.6197C31.9074 27.4854 31.8179 27.3501 31.7561 27.2138H31.6954V28H30.3531ZM31.6858 25.5455C31.6858 25.8374 31.7263 26.092 31.8073 26.3093C31.8882 26.5266 32.0054 26.696 32.1588 26.8175C32.3122 26.9368 32.4987 26.9964 32.7181 26.9964C32.9397 26.9964 33.1272 26.9357 33.2806 26.8143C33.434 26.6907 33.5502 26.5202 33.629 26.3029C33.71 26.0835 33.7504 25.831 33.7504 25.5455C33.7504 25.2621 33.711 25.0128 33.6322 24.7976C33.5534 24.5824 33.4372 24.4141 33.2838 24.2926C33.1304 24.1712 32.9419 24.1104 32.7181 24.1104C32.4965 24.1104 32.309 24.169 32.1556 24.2862C32.0044 24.4034 31.8882 24.5696 31.8073 24.7848C31.7263 25 31.6858 25.2536 31.6858 25.5455ZM37.449 28.0927C37.1358 28.0927 36.8567 28.0384 36.6117 27.9297C36.3667 27.8189 36.1728 27.6559 36.03 27.4407C35.8894 27.2234 35.8191 26.9528 35.8191 26.6289C35.8191 26.3562 35.8691 26.1271 35.9693 25.9418C36.0694 25.7564 36.2058 25.6072 36.3784 25.4943C36.551 25.3814 36.747 25.2962 36.9664 25.2386C37.188 25.1811 37.4203 25.1406 37.6632 25.1172C37.9487 25.0874 38.1788 25.0597 38.3535 25.0341C38.5282 25.0064 38.655 24.9659 38.7338 24.9126C38.8127 24.8594 38.8521 24.7805 38.8521 24.6761V24.657C38.8521 24.4545 38.7882 24.2979 38.6603 24.1871C38.5346 24.0763 38.3556 24.021 38.1234 24.021C37.8784 24.021 37.6834 24.0753 37.5385 24.1839C37.3936 24.2905 37.2978 24.4247 37.2509 24.5866L35.9917 24.4844C36.0556 24.1861 36.1813 23.9283 36.3688 23.7109C36.5563 23.4915 36.7981 23.3232 37.0943 23.206C37.3926 23.0866 37.7377 23.027 38.1298 23.027C38.4025 23.027 38.6635 23.0589 38.9128 23.1229C39.1642 23.1868 39.3869 23.2859 39.5808 23.4201C39.7768 23.5543 39.9313 23.7269 40.0442 23.9379C40.1571 24.1467 40.2136 24.397 40.2136 24.6889V28H38.9224V27.3192H38.8841C38.8052 27.4727 38.6998 27.608 38.5676 27.7251C38.4355 27.8402 38.2768 27.9308 38.0914 27.9968C37.9061 28.0607 37.6919 28.0927 37.449 28.0927ZM37.839 27.1531C38.0392 27.1531 38.2161 27.1136 38.3695 27.0348C38.5229 26.9538 38.6433 26.8452 38.7306 26.7088C38.818 26.5724 38.8617 26.418 38.8617 26.2454V25.7244C38.8191 25.7521 38.7605 25.7777 38.6859 25.8011C38.6135 25.8224 38.5314 25.8427 38.4398 25.8619C38.3482 25.8789 38.2566 25.8949 38.165 25.9098C38.0733 25.9226 37.9902 25.9343 37.9157 25.945C37.7559 25.9684 37.6163 26.0057 37.497 26.0568C37.3777 26.108 37.285 26.1772 37.2189 26.2646C37.1529 26.3498 37.1199 26.4563 37.1199 26.5842C37.1199 26.7695 37.187 26.9112 37.3212 27.0092C37.4576 27.1051 37.6301 27.1531 37.839 27.1531ZM42.6314 25.1619V28H41.2699V23.0909H42.5675V23.957H42.625C42.7337 23.6715 42.9158 23.4457 43.1715 23.2795C43.4272 23.1112 43.7372 23.027 44.1016 23.027C44.4425 23.027 44.7397 23.1016 44.9933 23.2507C45.2468 23.3999 45.4439 23.6129 45.5845 23.8899C45.7251 24.1648 45.7955 24.4929 45.7955 24.8743V28H44.4339V25.1172C44.4361 24.8168 44.3594 24.5824 44.2038 24.4141C44.0483 24.2436 43.8342 24.1584 43.5614 24.1584C43.3782 24.1584 43.2163 24.1978 43.0756 24.2766C42.9371 24.3555 42.8285 24.4705 42.7496 24.6218C42.6729 24.771 42.6335 24.951 42.6314 25.1619ZM48.1022 26.5874L48.1054 24.9542H48.3035L49.876 23.0909H51.4388L49.3263 25.5582H49.0035L48.1022 26.5874ZM46.8685 28V21.4545H48.23V28H46.8685ZM49.9367 28L48.4921 25.8619L49.3998 24.8999L51.5315 28H49.9367Z" fill="#171817"/>
</svg>
